# xmcd
#
# Track frame offsets:
#	150
#	18570
#	35909
#	57673
#	73264
#	92374
#	110683
#	126077
#	148925
#	164046
#	180388
#	202784
#	220767
#	234528
#	253036
#	282524
#
# Disc length: 3775 seconds
#
# Revision: 1
# Processed by: cddbd v1.5.1PL2 Copyright (c) Steve Scherf et al.
# Submitted via: audiograbber 1.83.01
#
DISCID=fa0ebd10
DTITLE=Various Artist - SC8956
DYEAR=2006
DGENRE=Karaoke
TTITLE0=Womack, Lee Ann - There's More Where That Came From
TTITLE1=Chesney, Kenny - Living In Fast Forward
TTITLE2=Chesney, Kenny - Beer In Mexico
TTITLE3=Aldean, Jason - Why
TTITLE4=Little Big Town - Boondocks
TTITLE5=Underwood, Carrie - Some Hearts
TTITLE6=Tomlinson, Trent - Drunker Than Me
TTITLE7=Bentley, Dierks - Come A Little Closer
TTITLE8=Gentry, Montgomery - She Don't Tell Me To
TTITLE9=Wilson, Gretchen - Full Time Job
TTITLE10=Evans, Sara - Bible Song
TTITLE11=Travis, Randy - Angels
TTITLE12=Wilson, Gretchen - Skoal Ring
TTITLE13=Cagle, Chris - Miss Me Baby
TTITLE14=Womack, Lee Ann - Twenty Years And Two Husbands Ago
TTITLE15=Data Track
EXTD=
EXTT0=
EXTT1=
EXTT2=
EXTT3=
EXTT4=
EXTT5=
EXTT6=
EXTT7=
EXTT8=
EXTT9=
EXTT10=
EXTT11=
EXTT12=
EXTT13=
EXTT14=
EXTT15=
PLAYORDER=
